<?xml version="1.0" standalone="no"?>
<!DOCTYPE svg PUBLIC "-//W3C//DTD SVG 20010904//EN"
 "http://www.w3.org/TR/2001/REC-SVG-20010904/DTD/svg10.dtd">
<svg version="1.0" xmlns="http://www.w3.org/2000/svg"
 width="900.000000pt" height="1600.000000pt" viewBox="0 0 900.000000 1600.000000"
 preserveAspectRatio="xMidYMid meet">

<g transform="translate(0.000000,1600.000000) scale(0.100000,-0.100000)"
fill="#000000" stroke="none">
<path d="M3340 15991 c0 -12 22 -19 70 -23 19 -1 38 -6 41 -11 4 -5 18 -10 33
-10 14 -1 26 -8 26 -15 0 -7 4 -10 10 -7 5 3 20 0 32 -7 13 -7 28 -13 33 -13
22 -1 95 -29 95 -37 0 -4 15 -8 34 -8 20 0 42 -8 52 -17 10 -10 27 -19 38 -20
47 -4 124 -29 140 -45 10 -10 26 -18 37 -18 11 0 47 -11 81 -25 34 -14 72 -25
84 -25 13 0 26 -4 29 -10 3 -5 15 -10 26 -10 10 0 27 -4 37 -9 26 -15 156 -61
170 -61 6 0 12 -4 12 -10 0 -5 14 -10 30 -10 17 0 30 -4 30 -10 0 -5 13 -10
28 -10 15 0 46 -9 67 -20 22 -12 55 -23 74 -26 19 -3 44 -12 55 -19 12 -7 37
-16 56 -20 19 -4 41 -11 50 -15 8 -5 42 -16 75 -25 33 -10 69 -21 80 -25 51
-18 93 -30 108 -30 9 0 17 -4 17 -10 0 -5 11 -10 25 -10 14 0 34 -4 45 -10 11
-5 29 -14 40 -20 11 -5 25 -10 32 -10 6 0 19 -6 27 -13 9 -8 44 -22 79 -32 35
-10 65 -22 68 -27 3 -4 16 -8 30 -8 13 0 24 -4 24 -10 0 -5 27 -18 60 -28 82
-25 125 -64 133 -123 3 -25 2 -50 -2 -55 -10 -10 -27 -162 -17 -153 4 4 11 35
17 70 6 35 14 68 18 74 5 5 18 46 29 90 25 98 43 146 60 164 8 8 11 22 9 32
-3 10 0 20 5 21 6 2 12 26 14 53 3 45 2 47 -9 25 -7 -14 -19 -25 -27 -25 -8 0
-23 -17 -33 -37 -12 -25 -25 -38 -39 -38 -11 0 -22 -8 -25 -20 -6 -21 -29 -27
-35 -9 -2 5 -16 12 -32 13 -16 2 -35 11 -41 20 -7 9 -26 16 -43 16 -17 0 -52
9 -78 20 -26 12 -53 19 -60 16 -6 -2 -24 2 -39 10 -15 8 -33 14 -40 14 -6 0
-27 8 -46 17 -19 10 -45 19 -58 21 -14 2 -30 10 -36 19 -7 9 -17 13 -23 9 -14
-8 -52 14 -52 31 0 7 -7 13 -15 13 -8 0 -15 -4 -15 -10 0 -14 -32 -12 -73 5
-20 8 -48 15 -62 15 -14 0 -25 5 -25 10 0 6 -12 10 -27 10 -14 0 -45 11 -67
24 -23 13 -57 27 -76 31 -19 4 -44 14 -55 21 -11 8 -36 14 -55 14 -20 0 -45 7
-56 15 -10 8 -27 15 -37 15 -10 0 -20 7 -23 15 -4 10 -19 15 -43 15 -36 0 -97
31 -84 43 3 4 -3 7 -14 7 -12 0 -23 -5 -25 -11 -3 -8 -10 -6 -21 6 -10 9 -35
19 -57 22 -27 4 -41 12 -45 24 -5 14 -13 17 -29 13 -12 -3 -65 9 -118 25 -52
17 -102 31 -112 31 -9 0 -16 5 -16 10 0 6 -6 10 -14 10 -7 0 -19 7 -27 16 -7
8 -21 13 -31 11 -26 -7 -105 25 -138 56 -16 15 -30 22 -32 16 -2 -7 -12 -7
-33 1 -48 19 -73 22 -192 27 -71 3 -113 1 -113 -6z"/>
<path d="M5948 15935 c-17 -72 -8 -86 17 -27 9 20 21 45 26 54 14 27 11 38 -9
38 -14 0 -22 -15 -34 -65z"/>
<path d="M5920 15824 c0 -8 5 -12 10 -9 6 3 10 10 10 16 0 5 -4 9 -10 9 -5 0
-10 -7 -10 -16z"/>
<path d="M5896 15765 c-22 -52 -16 -82 8 -33 10 20 16 45 14 55 -3 13 -9 7
-22 -22z"/>
<path d="M5841 15603 c0 -21 3 -31 6 -23 3 8 10 18 15 21 10 7 0 39 -13 39 -5
0 -9 -17 -8 -37z"/>
<path d="M4705 15621 c-3 -5 -1 -12 5 -16 5 -3 10 1 10 9 0 18 -6 21 -15 7z"/>
<path d="M5832 15540 c0 -14 2 -19 5 -12 2 6 2 18 0 25 -3 6 -5 1 -5 -13z"/>
<path d="M5853 15408 c-12 -6 -28 -27 -34 -46 -11 -33 -10 -37 15 -59 26 -22
41 -23 92 -8 7 2 19 17 27 34 15 30 15 31 -19 61 -37 32 -47 34 -81 18z"/>
<path d="M5932 15158 c-14 -14 -15 -37 -3 -56 14 -23 51 7 51 40 0 30 -25 39
-48 16z"/>
<path d="M6028 15106 c-12 -27 -4 -61 12 -51 5 3 31 -4 57 -15 27 -12 56 -23
65 -25 10 -2 32 -10 50 -18 18 -8 48 -18 67 -21 19 -3 52 -15 75 -26 23 -10
82 -31 131 -46 50 -14 123 -39 162 -55 40 -16 82 -29 93 -29 11 0 20 -4 20
-10 0 -5 13 -10 28 -10 16 0 31 -3 35 -6 3 -3 54 -23 114 -44 59 -21 126 -45
148 -54 22 -8 48 -15 57 -16 10 0 17 -6 15 -12 -1 -8 7 -12 23 -10 14 1 36 -3
50 -9 47 -22 65 -29 110 -43 42 -13 139 -48 315 -113 78 -28 163 -54 183 -56
7 0 11 -6 8 -13 -4 -10 2 -12 23 -8 16 4 32 1 35 -5 4 -6 11 -9 16 -6 5 3 22
-1 37 -8 15 -8 64 -27 108 -42 44 -15 94 -33 110 -41 30 -13 155 -57 210 -74
62 -19 192 -63 237 -81 26 -11 58 -19 72 -19 14 0 26 -4 26 -9 0 -4 26 -16 58
-25 105 -32 182 -61 182 -68 0 -5 9 -8 20 -8 16 0 20 7 20 35 0 28 -4 35 -19
35 -11 0 -23 5 -26 10 -3 6 -14 10 -24 10 -10 0 -24 7 -31 15 -7 8 -17 12 -22
9 -9 -6 -39 4 -113 37 -22 10 -67 25 -100 35 -33 9 -67 23 -75 30 -8 7 -33 16
-55 20 -41 7 -275 85 -332 110 -17 8 -40 14 -51 14 -11 0 -25 7 -32 15 -7 8
-19 15 -28 15 -17 0 -70 16 -117 36 -52 21 -207 75 -280 97 -38 12 -72 24 -75
27 -6 7 -124 45 -165 54 -26 6 -62 21 -137 58 -10 4 -27 8 -38 8 -10 0 -44 11
-74 25 -30 14 -64 25 -75 25 -18 0 -67 18 -113 41 -10 5 -24 9 -33 9 -8 0 -38
11 -67 23 -29 13 -69 29 -88 36 -19 7 -46 19 -60 26 -14 7 -41 15 -61 19 -19
3 -45 15 -57 27 -12 11 -22 15 -22 8 0 -7 -7 -8 -17 -4 -10 4 -31 9 -48 12
-16 2 -39 10 -50 17 -11 7 -38 15 -60 18 -22 3 -53 11 -70 18 -23 9 -26 13
-15 20 11 7 7 10 -16 10 -35 0 -134 27 -148 41 -6 5 -17 9 -25 9 -9 0 -38 11
-66 25 -63 31 -73 31 -87 1z"/>
<path d="M5736 14988 c-21 -30 -20 -50 4 -76 27 -28 65 -28 84 0 22 31 20 54
-6 78 -29 26 -63 26 -82 -2z"/>
<path d="M5620 14855 c0 -14 2 -25 4 -25 2 0 6 11 8 25 3 14 1 25 -3 25 -5 0
-9 -11 -9 -25z"/>
<path d="M5597 14743 c-4 -3 -7 -11 -7 -17 0 -6 5 -5 12 2 6 6 9 14 7 17 -3 3
-9 2 -12 -2z"/>
<path d="M5592 14670 c0 -19 2 -27 5 -17 2 9 2 25 0 35 -3 9 -5 1 -5 -18z"/>
<path d="M5567 14587 c-4 -10 -7 -26 -7 -35 1 -15 2 -15 11 1 6 10 9 25 7 35
-3 16 -4 15 -11 -1z"/>
<path d="M5000 14387 c-48 -23 -90 -61 -125 -114 -37 -55 -31 -73 7 -25 36 43
119 122 130 122 20 0 -69 -109 -175 -215 -93 -92 -111 -106 -117 -90 -5 14 -9
15 -14 6 -6 -10 -13 -8 -30 7 -29 26 -127 47 -216 46 -91 -1 -178 -23 -278
-69 -71 -34 -100 -39 -74 -13 7 7 12 16 12 21 0 5 -20 -8 -44 -29 -74 -65
-134 -114 -141 -114 -3 0 -39 -29 -80 -65 -41 -36 -82 -65 -90 -65 -23 0 -18
6 29 36 25 16 42 32 40 36 -3 5 15 31 40 59 25 28 46 55 46 61 0 14 -12 4
-111 -90 -91 -87 -265 -216 -327 -241 -24 -10 -30 -17 -22 -26 15 -18 -36 -58
-106 -85 -51 -19 -58 -19 -74 -5 -47 43 -216 -7 -277 -82 -20 -24 -40 -43 -45
-43 -5 0 -16 -7 -25 -15 -11 -11 -25 -14 -50 -9 l-35 7 17 -27 c16 -24 16 -26
0 -32 -9 -4 -28 -1 -43 5 l-26 13 24 18 25 19 -39 -6 c-31 -5 -38 -3 -34 8 2
8 19 19 36 24 17 6 34 14 38 17 9 9 -36 -1 -64 -15 -21 -10 -28 -7 -65 31 -38
39 -110 92 -123 92 -7 0 -115 64 -156 91 -30 21 -76 23 -158 7 -108 -20 -205
-89 -272 -192 -40 -63 -54 -112 -18 -66 11 14 20 20 20 13 0 -6 9 -9 21 -6 16
5 19 11 14 30 -4 16 -2 22 4 18 6 -3 18 4 28 17 49 62 86 88 154 109 93 28
141 22 248 -33 92 -47 95 -51 65 -112 -32 -67 -64 -240 -64 -353 0 -46 -2 -83
-4 -83 -2 0 -19 -6 -38 -14 -30 -13 -38 -13 -61 -1 -27 14 -36 8 -17 -11 8 -8
6 -15 -5 -24 -26 -21 -40 4 -42 73 -1 34 -9 82 -18 107 -20 54 -30 129 -21
164 4 17 16 28 33 32 l27 7 -24 9 c-18 7 -28 4 -47 -13 -20 -20 -23 -32 -23
-95 0 -40 7 -99 15 -131 21 -79 20 -86 -7 -72 -12 6 -32 25 -46 41 -13 16 -26
27 -29 24 -2 -2 21 -36 51 -76 31 -40 56 -77 56 -82 0 -7 -18 -8 -48 -4 -26 3
-54 1 -62 -4 -11 -7 -2 -10 33 -10 28 0 47 -5 47 -11 0 -7 10 -9 25 -5 22 6
25 3 25 -21 0 -96 -14 -115 -91 -128 -64 -10 -101 -57 -118 -150 -7 -33 -14
-70 -17 -83 -2 -13 -15 -27 -27 -32 -13 -5 -16 -9 -7 -10 32 -1 40 -15 30 -49
-7 -26 -6 -33 8 -39 11 -4 2 -9 -28 -13 -55 -9 -90 -2 -90 18 0 8 -5 11 -10 8
-6 -3 -20 -3 -31 0 -15 5 -19 13 -16 28 3 12 2 40 -3 62 -4 22 -8 32 -9 22 -1
-14 -6 -17 -22 -12 -16 5 -20 3 -16 -6 2 -8 10 -13 16 -12 15 4 14 -39 -2 -61
-11 -16 -19 -17 -52 -7 -46 12 -60 6 -20 -9 l28 -11 -23 -24 c-13 -14 -19 -25
-13 -25 6 0 16 7 23 16 8 9 25 14 43 12 24 -2 31 -8 32 -28 3 -33 33 -167 47
-205 6 -16 21 -43 32 -59 13 -20 20 -44 18 -71 -1 -29 3 -42 12 -42 8 0 11 8
8 19 -3 14 1 18 22 18 30 0 33 -15 9 -43 -14 -16 -15 -21 -4 -25 9 -3 -2 -19
-33 -47 -42 -40 -66 -74 -31 -45 24 20 25 8 4 -39 -10 -24 -19 -49 -19 -56 0
-7 -10 -25 -21 -40 -12 -15 -23 -37 -25 -48 -11 -71 -43 -170 -72 -218 -39
-69 -41 -113 -7 -159 14 -19 25 -42 25 -52 0 -10 7 -18 15 -18 19 0 19 14 1
29 -14 12 -14 91 -1 187 5 37 38 85 49 73 3 -3 7 -47 10 -99 4 -99 22 -190 37
-190 14 0 32 -77 24 -97 -5 -10 -9 -34 -10 -54 -1 -22 -12 -50 -30 -75 l-29
-39 30 28 c17 15 33 27 37 27 3 0 4 -21 1 -47 -9 -83 -10 -115 -2 -119 5 -3 8
-13 8 -24 0 -10 6 -20 14 -23 16 -6 16 -32 0 -46 -5 -5 -57 -25 -115 -44 -140
-47 -247 -99 -437 -211 -86 -52 -186 -109 -222 -127 l-65 -34 -3 -55 c-5 -97
7 -131 61 -167 26 -18 54 -30 62 -26 8 3 15 0 15 -7 0 -6 8 -19 19 -28 10 -10
28 -53 40 -97 92 -334 244 -640 383 -771 89 -84 173 -125 327 -159 41 -9 81
-24 89 -33 7 -9 11 -11 7 -4 -5 9 10 12 59 12 37 0 66 -4 66 -10 0 -5 -9 -10
-20 -10 -17 0 -20 -7 -20 -40 0 -22 4 -40 8 -40 5 0 12 -57 16 -127 3 -70 11
-132 17 -139 6 -7 11 -26 11 -43 1 -17 5 -28 10 -25 4 3 8 -11 8 -31 0 -28 7
-44 30 -65 17 -15 30 -33 30 -39 0 -6 6 -11 13 -11 7 0 21 -16 31 -35 11 -20
27 -35 35 -34 9 0 26 -2 39 -6 18 -6 22 -15 22 -46 0 -32 -4 -39 -19 -39 -21
0 -33 -22 -25 -45 7 -16 44 -21 44 -5 0 5 13 23 30 40 23 23 30 40 30 68 0 31
6 43 31 61 17 13 28 29 25 36 -2 7 1 19 9 25 8 7 17 21 21 33 4 12 12 26 18
33 6 6 18 22 26 34 14 21 192 170 203 170 3 0 14 -15 25 -33 11 -19 38 -47 61
-63 22 -16 41 -35 41 -41 0 -7 -18 -55 -41 -105 -22 -51 -45 -104 -51 -118 -5
-14 -16 -38 -23 -55 -23 -50 -46 -234 -47 -371 -1 -73 -3 -81 -19 -77 -12 4
-18 -2 -21 -18 -3 -26 -38 -40 -38 -16 0 20 -44 10 -66 -14 -9 -10 -30 -19
-46 -19 -33 0 -33 -2 -16 -131 6 -49 15 -89 19 -89 5 0 11 -27 15 -60 4 -33
10 -60 14 -60 4 0 13 -15 20 -32 8 -18 19 -40 26 -48 7 -8 15 -32 18 -52 8
-51 74 -174 92 -170 17 4 18 -10 2 -27 -7 -8 -8 -11 -2 -8 6 3 18 -17 29 -49
10 -31 26 -61 34 -67 21 -16 53 -75 47 -86 -3 -4 2 -17 12 -27 9 -10 17 -28
17 -39 0 -11 6 -19 12 -17 7 1 13 -4 13 -12 0 -24 43 -96 53 -89 12 7 27 -16
26 -42 0 -17 -2 -16 -10 5 -10 23 -11 24 -21 6 -8 -14 -5 -25 11 -47 12 -16
21 -37 19 -46 -2 -9 3 -18 11 -21 11 -4 13 2 8 27 -5 24 -3 31 6 29 6 -3 15
-22 18 -44 3 -21 7 -31 8 -21 0 9 6 17 11 17 13 0 13 -13 -2 -45 -13 -28 -3
-48 13 -25 9 12 10 10 6 -7 -3 -12 -1 -23 4 -25 5 -2 10 -22 11 -46 1 -36 4
-41 20 -36 14 4 18 0 18 -18 0 -28 15 -53 31 -53 7 0 16 -15 21 -32 5 -18 17
-37 28 -43 11 -6 20 -19 20 -29 0 -10 13 -32 30 -49 17 -18 30 -36 30 -41 0
-11 79 -91 90 -91 29 0 66 -179 72 -348 2 -61 6 -81 16 -77 6 2 12 0 12 -5 0
-6 -4 -10 -10 -10 -5 0 -10 -7 -10 -15 0 -8 -8 -15 -18 -15 -10 0 -23 -5 -30
-12 -7 -7 -12 -8 -12 -2 0 5 -4 4 -8 -2 -4 -6 -40 -26 -79 -44 -40 -18 -73
-36 -73 -41 0 -4 -26 -13 -57 -19 -32 -6 -66 -14 -77 -17 -11 -3 -16 -1 -12 5
8 13 -56 25 -80 15 -10 -5 -37 -20 -60 -36 -45 -30 -103 -47 -249 -72 -55 -9
-104 -20 -110 -23 -5 -3 -109 -7 -230 -7 l-220 -1 -137 -47 c-332 -113 -790
-355 -928 -489 -114 -112 -207 -226 -249 -308 -24 -47 -49 -92 -57 -100 -7 -8
-43 -76 -81 -150 -161 -315 -286 -723 -422 -1379 -43 -208 -50 -232 -90 -301
-24 -41 -101 -178 -172 -303 l-129 -228 0 -994 0 -995 4500 0 4500 0 0 2158 0
2157 -67 41 c-38 23 -144 88 -238 144 -93 57 -192 117 -220 135 -27 18 -84 53
-125 79 -121 75 -262 188 -295 235 -42 62 -140 159 -170 171 -15 6 -51 10 -81
10 -77 0 -152 40 -234 126 -36 37 -80 78 -99 91 -32 22 -90 31 -104 17 -3 -4
9 -24 27 -46 72 -84 53 -155 -79 -302 -188 -208 -791 -639 -1195 -855 -214
-115 -510 -260 -685 -336 -196 -85 -604 -204 -750 -219 -33 -4 -80 -9 -104
-12 -30 -4 -41 -2 -36 5 3 6 11 9 16 6 5 -4 9 -1 9 6 0 17 68 118 108 160 19
20 42 53 52 74 9 20 27 42 40 48 14 7 30 31 39 57 9 25 19 47 22 50 10 9 27
92 35 167 3 40 10 70 14 68 5 -3 11 14 15 37 4 24 15 54 25 68 9 14 20 43 24
64 6 29 10 36 17 25 6 -10 9 -5 9 19 0 20 5 32 13 32 7 0 23 28 35 63 13 34
34 76 48 92 15 17 37 53 51 81 13 28 32 60 41 70 9 11 34 54 55 96 20 42 44
81 52 88 8 7 15 21 15 31 0 11 5 19 10 19 6 0 10 6 10 13 0 8 11 34 25 58 13
24 31 60 40 79 9 19 26 51 39 70 13 19 30 53 37 75 8 22 17 42 20 45 16 14 79
112 79 123 0 8 12 27 26 43 14 16 34 45 44 65 10 19 26 41 34 48 9 8 16 21 16
30 0 14 50 118 133 276 11 22 28 56 38 75 9 19 31 61 48 94 16 32 33 71 36 87
4 15 15 46 26 69 11 22 24 51 29 65 5 14 14 25 20 25 5 0 10 7 10 15 0 8 14
37 30 63 17 27 30 53 30 59 0 13 40 95 55 113 7 8 16 26 20 40 4 14 28 67 51
118 24 50 44 95 44 98 0 3 11 20 24 37 14 18 27 46 31 62 4 17 17 53 30 80 27
59 47 111 70 180 9 28 25 77 36 110 20 61 22 68 38 169 5 32 14 63 20 69 6 6
10 40 10 76 -1 37 -3 58 -6 48 -2 -9 -8 -17 -13 -17 -13 0 -20 42 -9 62 8 15
6 18 -11 18 -15 0 -20 -7 -20 -25 0 -14 -7 -28 -15 -31 -8 -4 -15 -14 -15 -24
0 -10 -9 -21 -20 -25 -28 -9 -60 -53 -60 -82 0 -18 -4 -24 -15 -19 -14 5 -40
-26 -29 -36 2 -3 -3 -11 -12 -18 -13 -11 -17 -11 -24 0 -9 14 -37 -35 -59
-102 -8 -24 -29 -52 -56 -74 -27 -22 -42 -41 -38 -50 3 -8 0 -14 -6 -14 -16 0
-81 -66 -81 -82 -1 -18 -90 -58 -128 -58 -21 0 -32 -5 -32 -14 0 -8 -8 -17
-19 -21 -12 -3 -21 -20 -27 -47 -10 -47 -34 -64 -34 -24 0 19 -5 26 -20 26
-17 0 -20 -7 -20 -40 l0 -40 -49 0 -50 0 -3 -42 -3 -42 -58 3 c-55 2 -58 1
-48 -17 10 -20 4 -62 -9 -62 -5 0 -11 -18 -15 -40 -6 -36 -14 -44 -36 -42 -4
1 -5 -8 -2 -18 3 -11 0 -20 -6 -20 -6 0 -27 -10 -46 -23 -29 -19 -35 -28 -35
-59 0 -38 0 -38 -40 -38 -37 0 -41 -3 -57 -40 -10 -22 -26 -43 -36 -46 -10 -3
-22 -17 -27 -30 -5 -13 -16 -24 -24 -24 -8 0 -19 -13 -25 -30 -6 -20 -17 -30
-30 -30 -11 0 -25 -6 -31 -12 -44 -53 -61 -67 -91 -73 -19 -4 -39 -12 -46 -17
-7 -6 -19 -6 -32 1 -16 9 -22 8 -30 -6 -6 -10 -11 -15 -11 -11 0 12 -103 -29
-112 -46 -7 -13 -21 -15 -86 -10 -82 7 -153 8 -376 6 -111 -2 -143 1 -156 13
-20 18 -42 19 -58 3 -9 -9 -12 -9 -12 1 0 9 -9 12 -26 8 -18 -3 -30 2 -42 18
l-17 22 -10 -21 c-16 -31 -46 -31 -125 3 -40 16 -77 28 -83 25 -7 -2 -18 9
-25 26 -8 16 -19 30 -27 30 -7 0 -18 7 -25 15 -7 8 -16 13 -20 10 -4 -3 -10 2
-14 10 -3 8 -14 15 -24 15 -11 0 -25 7 -32 15 -7 8 -21 15 -31 15 -11 0 -19 6
-19 13 0 21 -72 89 -83 78 -5 -5 -16 -7 -23 -4 -16 6 -19 33 -4 33 14 0 13 27
-1 36 -6 3 -14 2 -18 -5 -5 -7 -13 -4 -24 9 -9 11 -24 20 -33 20 -13 0 -15 7
-9 43 8 46 52 97 85 97 10 0 22 4 25 10 13 21 285 87 390 95 33 2 92 14 130
26 74 23 92 26 330 59 109 16 155 26 170 40 25 22 65 35 65 21 0 -6 18 -11 40
-11 l40 0 0 50 c0 47 2 50 25 50 14 0 25 -4 25 -10 0 -5 7 -10 15 -10 8 0 15
7 15 15 0 8 -4 15 -10 15 -5 0 -10 11 -10 25 0 23 -4 25 -40 25 l-40 0 0 -40
c0 -29 -4 -40 -15 -40 -11 0 -15 11 -15 40 0 22 -5 40 -10 40 -12 0 -28 12
-74 54 -26 25 -38 29 -75 27 -27 -2 -56 4 -77 15 l-33 18 42 22 c168 85 184
104 92 104 -30 0 -55 -4 -55 -9 0 -4 -17 -7 -37 -7 -21 1 -47 -2 -58 -8 -11
-5 -31 -10 -45 -12 -14 -1 -51 -8 -83 -15 -46 -9 -70 -9 -109 0 -28 6 -56 8
-62 3 -6 -5 -71 -10 -144 -11 -73 -1 -145 -6 -160 -11 -16 -4 -36 -4 -45 2
-11 5 -24 5 -36 -1 -10 -6 -20 -8 -22 -6 -3 2 -19 7 -37 10 -18 3 -41 14 -52
25 -33 33 -99 70 -125 70 -14 0 -25 4 -25 9 0 6 -18 11 -41 13 -31 2 -44 9
-56 29 -14 23 -14 30 -2 57 16 37 24 41 104 53 117 18 171 21 208 11 22 -6 39
-7 43 -1 3 5 13 5 25 -2 11 -5 27 -8 37 -5 9 3 37 6 62 8 25 1 68 10 95 21 28
10 68 23 90 29 22 5 49 13 60 18 40 17 115 30 172 30 32 0 97 6 145 13 47 8
108 12 134 11 26 -2 54 2 61 8 7 6 36 9 68 6 39 -3 56 -1 59 9 7 17 30 17 45
0 6 -8 29 -19 51 -26 34 -10 51 -9 93 2 59 17 127 21 127 8 0 -5 -5 -11 -11
-13 -14 -5 0 -38 17 -38 8 0 14 -5 14 -11 0 -11 35 -9 86 6 14 5 31 -2 52 -20
17 -14 37 -25 44 -23 7 1 23 -3 36 -10 12 -7 22 -11 22 -8 0 2 21 -2 47 -10
36 -11 55 -12 80 -3 36 12 45 39 13 39 -17 0 -20 7 -20 39 0 31 -4 41 -20 46
-11 3 -20 14 -20 23 0 24 -85 77 -146 91 -28 7 -63 23 -77 37 -18 17 -34 23
-46 19 -11 -3 -22 -1 -26 5 -13 21 -92 47 -150 49 -42 1 -78 -5 -120 -20 -73
-27 -135 -27 -277 2 -206 41 -306 50 -464 37 -42 -3 -54 0 -63 14 -16 26 -36
22 -71 -12 -17 -17 -36 -30 -43 -31 -7 -1 -32 -3 -57 -5 -44 -4 -140 22 -140
38 0 4 -17 12 -38 17 -54 15 -76 33 -68 58 8 25 35 37 112 52 84 17 131 39
190 87 35 29 54 55 62 82 7 22 19 45 27 52 8 7 15 17 15 23 0 17 52 55 99 73
25 9 91 20 146 24 103 9 153 17 170 30 6 4 27 10 47 14 46 8 110 77 132 143
24 70 19 210 -5 171 -6 -9 -9 -4 -9 15 0 16 -4 26 -10 22 -6 -3 -10 -2 -10 4
0 6 -17 13 -37 16 -104 18 -329 103 -339 130 -3 8 -22 17 -42 21 -21 4 -46 11
-56 17 -25 13 -137 11 -145 -2 -12 -18 -162 -50 -260 -54 -32 -2 -56 -8 -59
-15 -2 -7 -8 -9 -14 -6 -5 4 -83 7 -171 9 -89 1 -174 6 -189 10 -24 6 -28 4
-28 -15 0 -20 -3 -22 -37 -15 -21 4 -45 13 -54 21 -14 12 -18 12 -34 -6 -10
-11 -22 -17 -26 -14 -5 3 -14 -16 -21 -42 -7 -25 -18 -49 -25 -51 -7 -3 -13
-19 -13 -36 0 -22 -3 -28 -11 -20 -5 5 -11 39 -11 74 -1 35 -3 56 -5 47 -3
-10 -10 -18 -17 -18 -7 0 -23 -12 -37 -26 -13 -15 -40 -37 -59 -49 -29 -19
-130 -112 -130 -120 0 -10 -57 -65 -67 -65 -7 0 -13 -7 -13 -15 0 -8 -6 -15
-12 -15 -17 1 -69 88 -57 95 16 11 10 30 -13 40 -13 6 -22 16 -21 23 2 6 -11
19 -27 27 -18 9 -30 23 -30 35 0 11 -7 20 -15 20 -9 0 -12 -6 -9 -15 5 -11 -1
-15 -25 -15 -21 0 -31 5 -31 15 0 8 8 15 17 15 16 0 16 1 0 17 -15 16 -14 19
23 51 46 39 49 54 16 72 -36 19 -15 48 35 48 81 1 329 56 443 97 38 14 91 39
117 55 49 32 72 71 100 170 7 25 21 57 31 72 52 75 109 237 166 469 17 69 45
153 61 185 17 32 44 86 60 119 59 116 142 175 249 177 85 1 162 -45 182 -109
16 -49 45 -118 115 -268 61 -131 164 -294 234 -370 80 -87 201 -267 201 -299
0 -8 7 -19 15 -26 8 -7 15 -18 15 -25 0 -17 97 -204 117 -227 30 -34 89 -55
135 -49 24 4 79 6 123 4 44 -1 112 -3 150 -4 52 -1 77 -7 99 -22 26 -19 30
-19 41 -4 10 14 14 14 31 3 10 -7 50 -16 87 -19 38 -3 79 -13 93 -21 13 -9 30
-16 38 -16 9 0 12 -7 9 -20 -5 -20 11 -28 22 -11 3 6 17 6 33 2 15 -5 50 -7
77 -6 28 1 55 -1 60 -5 6 -4 37 -10 70 -14 53 -6 63 -4 83 15 26 24 27 66 1
61 -9 -1 -19 4 -22 13 -4 9 -19 14 -44 14 -45 -1 -204 40 -225 59 -9 7 -44 21
-79 33 -35 11 -71 23 -79 26 -8 4 -17 7 -20 8 -3 1 -12 4 -20 7 -52 20 -280
55 -395 63 -74 4 -94 9 -135 29 -14 7 -37 16 -52 20 -25 6 -138 119 -138 139
0 5 -9 22 -21 39 -12 16 -19 31 -16 34 2 3 40 -6 83 -18 70 -20 99 -23 264
-22 195 1 296 14 465 59 213 57 360 124 475 215 41 33 77 60 80 60 10 0 31
-60 25 -70 -3 -5 -1 -10 4 -10 6 0 11 6 12 13 0 6 4 2 9 -10 8 -20 17 -23 59
-23 38 0 53 5 63 19 8 11 20 21 28 23 8 2 17 12 20 23 4 14 16 21 39 23 26 3
35 10 46 36 8 19 21 36 30 39 8 4 15 13 15 22 0 18 16 20 23 3 3 -8 9 -3 15
12 15 33 37 60 50 60 5 0 36 28 68 62 111 117 139 141 197 169 49 23 62 26 87
17 17 -5 30 -14 30 -19 0 -5 7 -9 15 -9 35 0 68 -123 69 -260 1 -84 9 -116 27
-105 10 7 10 7 14 -50 1 -22 -4 -50 -12 -61 -8 -13 -11 -32 -7 -48 4 -16 2
-26 -5 -26 -6 0 -11 -5 -11 -11 0 -6 7 -9 15 -5 10 4 15 -1 16 -17 6 -116 6
-183 -2 -187 -4 -3 2 -19 16 -35 l23 -30 8 29 c4 16 2 49 -4 74 -7 34 -7 52 4
78 8 19 15 78 17 138 3 96 13 141 24 108 6 -16 23 -5 23 14 0 8 -5 12 -11 8
-6 -3 1 13 16 36 26 41 27 46 16 98 -14 69 -14 159 -1 167 6 3 10 14 10 24 0
9 14 33 30 51 17 18 30 37 30 42 0 15 155 160 207 193 45 30 53 40 67 87 19
68 36 166 36 206 0 21 7 36 22 46 12 9 18 16 12 16 -31 0 -60 156 -68 367 -6
157 -21 276 -48 394 -12 54 -19 116 -18 170 3 174 -24 442 -49 473 -5 6 -12
39 -16 73 -10 90 -110 290 -174 347 -28 25 -28 82 0 146 17 39 20 64 17 117
-3 65 -9 82 -80 230 -17 34 -67 82 -126 119 -47 30 -107 49 -219 70 -13 3 -23
11 -23 19 0 8 -6 18 -14 22 -23 13 -316 302 -316 312 0 5 -6 11 -14 14 -21 8
-30 64 -16 98 10 23 10 39 0 75 -7 25 -19 48 -26 51 -21 8 -25 49 -9 93 21 60
18 73 -5 22 -17 -39 -22 -42 -47 -36 -15 3 -44 7 -63 8 -19 0 -40 4 -47 9 -6
4 -23 2 -36 -4 -18 -8 -38 -8 -76 0 -63 13 -71 14 -71 2 0 -5 16 -15 35 -22
19 -7 35 -15 35 -19 0 -7 -76 -50 -89 -50 -6 0 -11 8 -11 18 0 9 -9 30 -19 46
-17 26 -18 32 -5 62 16 37 21 171 9 247 -12 79 -21 52 -11 -34 6 -57 5 -100
-3 -150 -14 -73 -23 -83 -42 -46 -7 12 -40 51 -75 87 -34 36 -64 76 -66 90 -2
21 -11 27 -52 37 -27 7 -64 19 -82 28 -17 8 -43 15 -56 15 -14 0 -37 13 -54
31 -16 17 -46 42 -66 55 -45 29 -49 57 -10 78 l27 15 -31 -5 c-28 -5 -32 -3
-42 24 -10 30 -56 63 -84 61 -7 0 -24 -6 -38 -12z m96 -62 c8 -12 12 -30 8
-39 -3 -9 -1 -16 5 -16 20 0 12 -27 -13 -43 -13 -9 -35 -40 -49 -69 -14 -29
-32 -62 -41 -73 -15 -19 -16 -19 -6 8 5 16 10 36 10 45 0 27 -16 -3 -40 -75
-16 -45 -30 -69 -56 -88 -28 -22 -38 -24 -50 -15 -11 10 -11 16 -3 26 9 11 5
16 -15 25 -14 7 -28 20 -31 29 -4 13 -12 16 -28 13 -15 -4 9 26 73 92 116 120
109 112 143 167 24 37 33 44 54 40 13 -2 31 -15 39 -27z m19 -144 c-7 -23 -25
-29 -25 -8 0 14 21 39 28 33 2 -3 1 -14 -3 -25z m127 -56 c15 -16 27 -34 27
-40 0 -5 -18 -22 -39 -37 -29 -20 -49 -46 -70 -93 -22 -49 -35 -65 -50 -65
-24 0 -25 13 -3 46 12 19 18 22 25 12 7 -9 8 -6 4 11 -3 13 2 49 10 80 7 30
14 80 14 110 l0 54 28 -23 c15 -14 39 -38 54 -55z m-137 -24 c-4 -23 -11 -43
-16 -47 -12 -7 -11 -2 2 52 14 55 24 51 14 -5z m289 -29 c21 -15 41 -35 44
-44 2 -10 8 -18 13 -18 5 0 6 -7 3 -15 -14 -36 -124 0 -124 41 0 8 -4 14 -9
14 -5 0 -11 8 -15 18 -3 9 -9 23 -12 31 -10 22 54 5 100 -27z m-787 -11 c23
-11 49 -21 58 -21 19 0 19 -14 -1 -34 -19 -20 -73 -21 -80 -2 -3 8 -26 17 -54
21 -57 8 -101 -12 -170 -76 -41 -38 -50 -42 -105 -44 -63 -2 -134 -28 -174
-64 -13 -11 -29 -21 -36 -21 -6 0 -17 -11 -23 -25 -11 -24 -42 -35 -42 -15 0
16 -15 12 -41 -11 -27 -23 -62 -43 -98 -54 l-23 -7 22 40 c41 73 142 164 245
221 22 12 60 34 85 48 25 14 77 36 115 49 94 31 256 29 322 -5z m432 -33 c-12
-43 -34 -64 -24 -23 6 26 22 55 31 55 1 0 -2 -14 -7 -32z m261 7 c-1 -5 -16
-11 -33 -12 -30 -2 -31 -2 -12 13 21 16 47 15 45 -1z m-802 -47 c-16 -17 -36
-44 -43 -58 -8 -15 -25 -34 -38 -43 -22 -14 -26 -14 -50 1 -30 20 -25 30 38
78 45 34 82 52 107 53 12 1 9 -7 -14 -31z m72 -3 c0 -15 -38 -35 -63 -35 -14
1 39 50 54 50 5 0 9 -7 9 -15z m404 -23 c-4 -9 -8 -23 -10 -31 -4 -19 -34 -49
-34 -33 0 19 44 104 48 92 2 -6 1 -18 -4 -28z m346 23 c0 -19 32 -35 58 -28
15 3 29 -3 46 -21 28 -31 40 -22 41 29 0 48 32 39 71 -20 18 -27 47 -69 65
-93 28 -39 30 -46 19 -73 -7 -16 -16 -27 -20 -24 -5 3 -6 -3 -3 -13 2 -11 -9
-31 -33 -55 -43 -43 -56 -42 -25 1 32 45 25 49 -14 9 -19 -20 -35 -39 -35 -42
0 -4 -9 -20 -21 -36 l-21 -29 -31 39 c-18 22 -38 40 -45 40 -7 1 -15 8 -18 16
-4 8 -14 15 -24 15 -26 0 -29 8 -20 60 4 25 8 38 9 29 1 -11 14 -19 36 -23 33
-7 35 -9 36 -49 l1 -42 16 50 c9 28 20 52 24 53 13 6 9 32 -4 33 -7 1 -28 0
-46 -1 -18 -1 -48 8 -68 19 -19 12 -52 21 -72 21 -20 0 -44 5 -52 10 -11 7 -5
10 25 10 37 1 39 2 21 15 -11 8 -28 15 -38 15 -10 0 -18 5 -18 10 0 6 3 10 8
10 4 0 21 12 37 26 l30 26 -39 -22 -39 -21 15 23 c25 38 128 65 128 33z m-765
-65 c-3 -5 -11 -10 -17 -10 -5 0 -28 -14 -50 -32 -31 -24 -39 -27 -37 -14 2
10 24 29 49 42 48 26 65 30 55 14z m-305 -40 c0 -5 7 -7 15 -4 8 4 15 1 15 -5
0 -13 1 -13 -73 -16 -62 -2 -65 11 -5 25 46 11 48 11 48 0z m435 -20 c-3 -5
-16 -10 -28 -10 -18 0 -19 2 -7 10 20 13 43 13 35 0z m135 -5 c-7 -8 -18 -15
-24 -15 -6 0 -2 7 8 15 25 19 32 19 16 0z m24 -47 c-10 -11 -27 -24 -37 -30
-34 -18 -29 0 10 35 39 36 60 32 27 -5z m-599 11 c4 -5 0 -18 -9 -28 -9 -10
-16 -23 -16 -29 0 -6 -7 -17 -15 -26 -13 -12 -21 -13 -43 -4 -15 7 -33 17 -41
22 -8 6 -26 11 -40 11 -16 0 -26 6 -26 15 0 18 47 42 59 30 5 -5 15 -3 23 6
17 16 99 19 108 3z m36 -17 c-5 -10 -18 -25 -27 -33 -16 -12 -16 -10 1 19 20
33 43 46 26 14z m59 13 c0 -13 -54 -115 -61 -116 -5 -1 -17 -2 -26 -3 -10 -1
-24 -5 -30 -9 -18 -11 -17 14 1 38 12 16 16 17 30 6 9 -7 17 -10 18 -5 0 5 2
14 2 19 3 16 28 59 40 67 13 9 26 10 26 3z m934 -11 c18 -17 19 -24 8 -41 -6
-10 -17 -10 -47 -1 -22 7 -41 12 -41 12 -1 1 -5 11 -8 24 -7 20 -4 22 33 22
23 0 46 -7 55 -16z m-604 -2 c0 -4 -9 -13 -20 -20 -16 -10 -20 -10 -20 1 0 8
3 17 7 20 9 9 33 9 33 -1z m-306 -57 c-36 -48 -42 -37 -8 15 16 23 30 37 32
31 2 -6 -9 -26 -24 -46z m-558 -9 c-14 -25 -26 -53 -26 -63 0 -20 -64 -85 -93
-96 -10 -4 -16 -11 -13 -16 10 -16 -45 -51 -81 -51 -30 0 -34 3 -28 20 5 15 1
22 -17 29 l-23 8 34 32 c19 18 47 35 63 38 15 3 28 12 28 19 0 7 10 19 22 25
12 6 48 31 81 55 32 24 64 44 69 44 5 0 -2 -20 -16 -44z m2104 35 c0 -16 -75
-47 -99 -41 -21 5 -22 7 -8 19 9 7 25 10 36 6 12 -4 30 0 43 9 26 19 28 19 28
7z m-253 -63 c-4 -15 -23 -31 -52 -45 -25 -12 -42 -17 -38 -10 3 7 14 23 23
37 10 14 25 38 35 55 18 29 18 29 28 8 5 -12 7 -32 4 -45z m357 39 c-2 -7 -13
-13 -24 -14 -24 -2 -25 1 -4 21 17 18 36 13 28 -7z m-1499 -25 c-11 -10 -33
-24 -50 -30 -28 -11 -28 -11 -11 3 11 8 24 15 29 15 4 0 15 7 23 15 9 8 18 15
22 15 4 0 -2 -8 -13 -18z m47 -4 c-7 -7 -12 -8 -12 -2 0 14 12 26 19 19 2 -3
-1 -11 -7 -17z m1204 -9 c3 -6 14 -9 24 -6 13 3 17 0 13 -9 -3 -8 -8 -15 -12
-15 -32 -7 -51 -4 -55 8 -11 27 15 46 30 22z m265 -22 c-8 -8 -11 -7 -11 4 0
20 13 34 18 19 3 -7 -1 -17 -7 -23z m-2049 -57 l3 -65 -68 1 c-82 1 -93 9 -74
56 11 26 28 42 68 62 29 14 56 23 60 19 4 -5 9 -37 11 -73z m107 62 c19 -10
41 -28 49 -40 13 -20 12 -22 -12 -32 -33 -12 -34 -22 -2 -14 40 10 39 -14 -1
-25 -60 -17 -101 -14 -113 8 -11 22 -14 104 -3 114 12 12 48 7 82 -11z m1997
-61 c-7 -51 -12 -59 -27 -44 -13 13 -16 94 -4 113 16 26 37 -21 31 -69z
m-1798 42 c-2 -10 -11 -19 -21 -21 -16 -3 -17 -1 -7 17 13 25 33 28 28 4z
m1592 7 c0 -5 -4 -10 -10 -10 -5 0 -10 5 -10 10 0 6 5 10 10 10 6 0 10 -4 10
-10z m-2 -40 c9 0 24 -5 32 -10 12 -7 12 -12 2 -22 -9 -9 -15 -9 -24 0 -7 7
-25 12 -40 12 -27 0 -35 9 -21 24 4 3 13 4 21 1 7 -3 21 -5 30 -5z m-578 -62
c0 -16 -4 -28 -8 -28 -12 0 -32 59 -25 76 8 22 32 -14 33 -48z m641 19 c-8 -8
-11 -7 -11 4 0 20 13 34 18 19 3 -7 -1 -17 -7 -23z m36 -19 c-3 -8 -6 -5 -6 6
-1 11 2 17 5 13 3 -3 4 -12 1 -19z m-337 1 c-8 -5 -41 -25 -72 -43 -48 -29
-58 -31 -63 -18 -3 9 -3 13 1 9 4 -4 17 2 29 13 11 11 39 26 60 34 46 17 67
19 45 5z m-115 -9 c-3 -5 -12 -10 -18 -10 -7 0 -6 4 3 10 19 12 23 12 15 0z
m-134 -53 c-16 -16 -20 -5 -8 23 9 22 11 23 14 6 3 -10 0 -23 -6 -29z m269 38
c0 -9 -64 -45 -80 -45 -8 1 5 12 30 25 51 27 50 27 50 20z m-2122 -33 c2 -12
0 -22 -5 -22 -13 0 -42 37 -35 45 13 12 37 -1 40 -23z m322 17 c0 -3 -11 -9
-25 -11 -25 -5 -35 7 -12 15 19 6 37 4 37 -4z m-505 -19 c-3 -5 -11 -10 -16
-10 -6 0 -7 5 -4 10 3 6 11 10 16 10 6 0 7 -4 4 -10z m2492 -16 c-3 -3 -12 -4
-19 -1 -8 3 -5 6 6 6 11 1 17 -2 13 -5z m-2637 -14 c-20 -13 -43 -13 -35 0 3
6 16 10 28 10 18 0 19 -2 7 -10z m2375 -25 c-30 -24 -55 -32 -55 -17 0 9 73
52 80 46 2 -3 -9 -16 -25 -29z m385 20 c-7 -9 -15 -13 -17 -11 -7 7 7 26 19
26 6 0 6 -6 -2 -15z m-268 -17 c-7 -7 -12 -8 -12 -2 0 14 12 26 19 19 2 -3 -1
-11 -7 -17z m328 18 c0 -2 -9 -6 -20 -9 -11 -3 -18 -1 -14 4 5 9 34 13 34 5z
m-2856 -53 c-8 -49 -19 -60 -39 -39 -9 9 -12 16 -6 16 6 0 11 6 11 14 0 14 26
46 36 46 3 0 2 -17 -2 -37z m123 12 c-15 -14 -33 -25 -39 -25 -17 0 35 48 52
49 9 0 5 -9 -13 -24z m-649 -69 c6 -14 18 -26 27 -26 8 0 15 -7 15 -15 0 -8 6
-15 13 -15 7 0 21 -23 31 -51 l18 -52 -29 -23 c-15 -13 -34 -23 -40 -24 -7 0
-13 -6 -13 -13 0 -8 -9 -22 -21 -33 -12 -10 -27 -31 -35 -46 -15 -29 -79 -78
-102 -78 -21 0 -11 246 12 315 9 28 21 66 27 85 19 59 28 63 58 31 15 -16 32
-40 39 -55z m467 45 c-3 -6 -11 -11 -17 -11 -6 0 -6 6 2 15 14 17 26 13 15 -4z
m2674 -34 c-2 -1 -13 -9 -24 -17 -19 -14 -19 -14 -6 3 7 9 18 17 24 17 6 0 8
-1 6 -3z m-3009 -63 c0 -9 -5 -14 -12 -12 -18 6 -21 28 -4 28 9 0 16 -7 16
-16z m45 -44 c-3 -5 -10 -10 -16 -10 -5 0 -9 5 -9 10 0 6 7 10 16 10 8 0 12
-4 9 -10z m-55 -104 c0 -3 -15 -15 -32 -27 l-33 -23 24 27 c22 24 41 35 41 23z
m1945 -136 c3 -6 -1 -7 -9 -4 -18 7 -21 14 -7 14 6 0 13 -4 16 -10z m85 -10
c8 -5 11 -12 8 -16 -10 -9 -78 5 -78 16 0 13 50 13 70 0z m-2258 -70 c-19 -34
-32 -39 -32 -12 0 21 18 42 37 42 9 0 7 -8 -5 -30z m2223 20 c8 -13 -15 -13
-35 0 -12 8 -11 10 7 10 12 0 25 -4 28 -10z m-2275 -45 c0 -33 -26 -43 -45
-19 -12 17 -12 21 2 32 26 19 43 14 43 -13z m-94 -24 c-3 -5 2 -12 11 -15 11
-5 13 -10 6 -17 -7 -7 -18 -7 -34 3 -13 7 -26 14 -28 15 -10 5 13 23 30 23 11
0 18 -4 15 -9z m4429 -21 c3 -5 1 -10 -4 -10 -6 0 -11 5 -11 10 0 6 2 10 4 10
3 0 8 -4 11 -10z m-1879 -39 c-19 -20 -94 -44 -110 -34 -5 3 17 16 50 28 75
29 81 29 60 6z m1664 -40 c-15 -29 -30 -35 -30 -13 0 22 8 32 27 32 10 0 11
-5 3 -19z m-70 -31 c0 -5 -4 -10 -10 -10 -5 0 -10 5 -10 10 0 6 5 10 10 10 6
0 10 -4 10 -10z m-1025 -37 c39 -19 47 -48 14 -56 -11 -3 -44 -3 -72 -1 -46 5
-56 2 -82 -21 l-30 -26 88 5 c49 4 105 13 125 22 l37 15 -23 -21 c-12 -11 -22
-25 -22 -30 0 -19 23 -10 71 27 39 29 46 39 34 46 -18 9 -20 37 -4 37 7 0 18
-8 26 -17 8 -10 12 -12 8 -5 -4 8 1 12 14 12 12 0 21 4 21 9 0 13 37 24 51 15
7 -4 2 -12 -13 -23 -29 -20 -32 -66 -4 -66 11 0 21 -6 24 -13 2 -6 10 -12 17
-12 16 0 26 -25 19 -45 -4 -9 0 -15 7 -15 19 -1 59 -35 60 -52 1 -25 56 -113
73 -116 19 -4 86 -67 86 -82 0 -4 23 -35 50 -67 28 -32 53 -68 56 -80 3 -13
10 -21 14 -18 4 2 5 -6 3 -18 -3 -15 9 -36 39 -69 68 -74 78 -87 78 -103 0
-15 3 -24 34 -82 9 -18 21 -58 27 -90 6 -32 17 -65 24 -73 23 -25 55 -141 55
-196 0 -41 4 -53 18 -56 11 -3 22 -23 31 -59 7 -30 19 -60 25 -68 6 -8 12 -24
14 -35 1 -12 5 -42 8 -68 3 -27 10 -48 15 -48 4 0 7 -63 6 -141 -2 -77 1 -143
5 -145 13 -8 9 -24 -5 -24 -14 0 -23 9 -97 100 -25 30 -68 79 -97 108 -29 29
-53 56 -53 61 0 4 -20 22 -45 40 -40 29 -52 32 -93 28 -67 -6 -271 20 -299 38
-14 9 -33 13 -44 10 -11 -4 -27 -1 -35 5 -9 8 -29 10 -54 6 -31 -5 -40 -3 -40
8 0 12 -22 14 -118 14 -143 0 -219 9 -291 33 -61 21 -122 26 -104 8 6 -6 29
-13 53 -16 75 -10 21 -22 -75 -16 -79 5 -93 3 -98 -11 -5 -11 -19 -16 -49 -16
-43 0 -178 -22 -247 -39 -20 -5 -58 -12 -86 -15 -27 -4 -88 -16 -135 -26 -47
-11 -130 -29 -185 -41 -55 -12 -122 -27 -150 -34 -27 -7 -68 -16 -90 -20 -22
-3 -94 -19 -160 -35 -194 -47 -643 -126 -653 -115 -3 3 1 5 9 5 10 1 9 4 -5
15 -10 7 -15 19 -11 25 6 9 2 9 -14 0 -17 -9 -26 -9 -37 0 -7 7 -12 16 -9 20
3 4 -2 10 -10 14 -8 3 -15 1 -15 -4 0 -5 -8 -9 -17 -10 -27 -1 -171 -1 -233 0
-55 1 -274 -38 -298 -53 -7 -5 -10 -13 -7 -18 4 -5 -7 -6 -25 -3 -19 4 -30 2
-30 -5 0 -6 -7 -11 -15 -11 -8 0 -15 -4 -15 -9 0 -16 -89 -18 -95 -2 -8 19
-89 7 -122 -19 -31 -24 -58 -27 -49 -5 8 23 -27 19 -44 -5 -8 -11 -20 -20 -27
-20 -6 0 -18 -8 -25 -17 -20 -28 -75 -63 -97 -63 -11 0 -23 -4 -26 -10 -3 -5
-12 -10 -19 -10 -9 0 -13 23 -14 83 -1 109 17 439 29 513 5 32 10 66 10 74 0
8 4 24 9 35 4 11 13 39 19 63 7 23 16 42 21 42 6 0 10 6 10 14 0 26 35 93 47
89 6 -2 14 13 18 35 9 55 53 145 135 277 64 103 96 144 103 134 2 -2 15 -31
29 -64 21 -49 30 -60 49 -61 13 0 37 -4 52 -8 15 -5 30 -6 33 -3 9 8 -8 77
-18 77 -6 0 -7 -7 -4 -15 4 -11 -3 -19 -19 -25 -20 -8 -29 -6 -45 10 -11 11
-20 21 -20 23 0 1 17 11 37 22 21 11 51 32 66 47 32 30 65 29 121 -2 33 -18
36 -23 66 -95 l21 -51 62 1 c95 2 104 4 110 19 10 25 -23 76 -56 90 -48 20
-69 49 -72 100 -3 45 -2 46 41 67 25 11 50 26 57 33 7 6 27 22 45 35 l33 23
23 -21 c12 -11 27 -21 33 -21 7 0 15 -10 19 -22 7 -23 94 -109 104 -104 3 2
23 11 45 21 22 10 50 27 62 38 12 11 29 17 37 14 26 -10 28 11 2 28 -43 28
-39 43 17 75 34 20 66 30 93 30 22 0 44 4 50 9 5 6 31 14 59 18 42 7 51 12 55
33 3 14 13 36 23 50 15 22 27 26 95 30 47 3 94 0 121 -7 67 -19 81 -17 81 13
0 24 3 25 35 21 23 -3 47 -16 67 -37 26 -28 29 -37 24 -69 -3 -20 -6 -42 -6
-48 0 -7 -7 -13 -16 -13 -8 0 -12 -4 -9 -10 12 -19 33 -10 39 16 6 21 9 24 21
14 8 -7 12 -16 10 -21 -12 -18 31 -46 63 -41 31 4 46 22 20 22 -29 0 -41 21
-52 88 -11 66 -8 94 13 112 3 3 6 19 6 35 0 24 5 31 25 33 14 2 31 9 38 14 9
8 12 6 12 -5 0 -8 -5 -17 -11 -19 -7 -2 -9 -15 -5 -35 6 -28 13 -32 49 -38 23
-4 53 -13 67 -20 14 -7 42 -16 63 -20 21 -4 37 -13 37 -21 0 -23 18 -25 72 -8
130 40 143 42 156 18 7 -13 11 -10 22 16 22 52 50 60 194 53 112 -5 130 -4
161 13 52 27 46 45 -8 25 -30 -12 -63 8 -54 32 4 11 24 16 76 19 39 1 71 2 71
0 0 -2 -5 -13 -11 -25 l-12 -21 29 19 c16 10 37 27 48 37 11 10 32 18 47 18
15 0 30 4 33 9 8 12 81 25 131 22 23 -1 48 4 60 13 25 19 18 19 60 -1z m1210
-1 c0 -18 -20 -15 -23 4 -3 10 1 15 10 12 7 -3 13 -10 13 -16z m-49 -27 c19
-15 19 -15 0 -30 -18 -14 -56 -21 -56 -11 0 14 21 56 28 56 4 0 17 -7 28 -15z
m-4498 -110 c-27 -52 -53 -95 -59 -95 -5 0 -9 21 -9 48 1 85 59 174 100 152
16 -8 12 -19 -32 -105z m2442 106 c0 -12 -20 -25 -27 -18 -7 7 6 27 18 27 5 0
9 -4 9 -9z m-996 -22 c-8 -14 -34 -10 -34 5 0 9 7 12 20 9 11 -3 17 -9 14 -14z
m-1405 -85 c-17 -21 -21 -11 -8 22 10 23 13 25 16 11 3 -10 -1 -25 -8 -33z
m1536 36 c4 -6 -5 -10 -19 -10 -14 0 -26 5 -26 10 0 6 9 10 19 10 11 0 23 -4
26 -10z m785 6 c0 -11 -19 -15 -25 -6 -3 5 1 10 9 10 9 0 16 -2 16 -4z m371
-26 c11 0 17 -4 14 -10 -3 -5 -27 -10 -53 -10 -42 0 -44 1 -26 15 10 8 25 12
32 10 8 -3 23 -5 33 -5z m-436 -21 c6 -7 5 -13 -4 -19 -16 -9 -64 11 -77 31
-8 14 65 3 81 -12z m-2243 -31 c-7 -7 -12 -8 -12 -2 0 14 12 26 19 19 2 -3 -1
-11 -7 -17z m-65 -60 c-3 -7 -5 -2 -5 12 0 14 2 19 5 13 2 -7 2 -19 0 -25z
m1233 -28 c0 -5 -5 -10 -11 -10 -5 0 -7 5 -4 10 3 6 8 10 11 10 2 0 4 -4 4
-10z m46 -25 c-25 -19 -37 -19 -30 0 4 8 16 15 28 15 21 -1 21 -1 2 -15z
m2531 -7 c-3 -8 -6 -5 -6 6 -1 11 2 17 5 13 3 -3 4 -12 1 -19z m-2483 -12
c-10 -8 -21 -12 -24 -10 -5 6 21 24 34 24 6 0 1 -6 -10 -14z m-549 -79 c-9
-14 -23 -28 -31 -31 -8 -3 -2 10 13 29 31 39 43 40 18 2z m-968 -27 c47 -12
52 -16 58 -46 7 -40 -12 -77 -37 -70 -19 4 -25 -9 -8 -19 6 -3 10 -14 10 -23
0 -26 -20 -92 -28 -92 -11 1 -44 79 -38 89 4 5 2 20 -3 34 -6 15 -6 28 0 34 6
6 1 25 -11 51 -23 47 -25 66 -7 59 6 -2 35 -10 64 -17z m103 -105 c-7 -8 -10
-21 -7 -28 3 -8 1 -20 -3 -27 -7 -11 -11 -11 -24 -1 -17 14 -12 32 18 76 17
25 21 27 24 12 2 -10 -2 -24 -8 -32z m465 -65 c-3 -5 0 -10 7 -10 14 -1 -28
-40 -43 -40 -16 0 -9 39 9 49 22 13 35 14 27 1z m-494 -41 c7 -13 7 -24 2 -28
-6 -3 -15 -16 -22 -28 -20 -38 -34 -28 -26 20 11 64 25 75 46 36z m-18 -319
c-7 -25 -33 -49 -33 -30 0 11 28 50 36 50 1 0 0 -9 -3 -20z m-3 -67 c-1 -10
-47 -63 -55 -63 -12 0 -3 25 17 47 21 23 38 30 38 16z m-107 -160 c-6 -38 -19
-63 -33 -63 -7 0 14 72 26 92 10 16 13 7 7 -29z m82 -26 c-7 -26 -55 -79 -55
-59 0 6 5 14 11 18 6 3 18 22 26 41 16 39 27 39 18 0z m14 -99 c-8 -14 -14
-18 -17 -10 -4 13 17 46 25 38 3 -2 -1 -15 -8 -28z m-52 -25 c-15 -16 -17 -16
-17 -1 0 9 6 18 13 21 20 7 22 -2 4 -20z m-124 -80 c-8 -52 -13 -54 -13 -5 0
23 4 42 9 42 6 0 7 -17 4 -37z m3716 -189 c2 -2 -12 -4 -33 -4 -22 0 -35 4
-31 10 5 9 52 4 64 -6z m129 -54 c25 0 35 -5 39 -20 3 -10 13 -22 23 -25 10
-3 21 -12 24 -20 3 -8 12 -15 21 -15 8 0 15 -3 15 -7 0 -5 3 -18 6 -30 5 -19
2 -23 -19 -23 -22 0 -26 6 -32 40 -7 42 -25 55 -25 19 0 -28 -23 -19 -30 12
-5 21 -12 24 -56 25 -85 3 -109 5 -96 11 19 7 14 20 -10 28 -21 7 -19 8 11 12
19 3 37 -1 41 -7 5 -8 11 -6 20 5 9 11 16 13 24 5 5 -5 25 -10 44 -10z m-563
-60 c-3 -5 -14 -10 -23 -9 -14 0 -13 2 3 9 27 11 27 11 20 0z m-2515 -109 c0
-12 -20 -25 -27 -18 -7 7 6 27 18 27 5 0 9 -4 9 -9z m1270 5 c0 -2 -7 -7 -16
-10 -8 -3 -12 -2 -9 4 6 10 25 14 25 6z m2235 -22 c18 -20 38 -28 73 -32 43
-4 51 -10 99 -66 29 -33 70 -80 92 -103 22 -23 47 -53 56 -67 10 -15 37 -35
61 -45 41 -18 59 -41 33 -41 -8 0 -10 -14 -6 -40 3 -23 1 -40 -6 -43 -9 -3 17
-63 34 -77 3 -3 12 -22 19 -42 11 -31 11 -39 0 -53 -12 -14 -26 -15 -96 -10
l-83 7 -35 -34 c-20 -19 -36 -38 -36 -42 0 -4 -6 -13 -12 -21 -7 -7 -29 -32
-48 -55 -19 -23 -50 -59 -67 -79 -18 -20 -33 -41 -33 -47 0 -26 -107 -104
-144 -104 -8 0 -27 -17 -42 -38 -26 -36 -67 -65 -78 -55 -2 2 6 31 19 63 34
86 82 301 95 420 7 58 16 134 21 170 5 36 10 75 9 87 0 12 9 27 20 33 11 6 20
18 20 26 0 9 10 24 21 33 24 19 19 61 -6 61 -8 0 -18 18 -23 43 -9 41 -9 42
-21 17 -9 -21 -11 -11 -6 54 7 108 25 128 70 80z m-2275 11 c0 -3 -12 -10 -26
-15 -14 -6 -22 -14 -19 -20 4 -6 -8 -10 -27 -11 -18 0 -27 -3 -20 -6 6 -2 12
-9 12 -15 0 -14 -91 -2 -101 13 -4 7 -12 8 -20 3 -8 -5 -27 -10 -44 -11 -16
-1 -51 -4 -78 -7 -73 -8 -46 11 36 24 39 6 85 14 101 17 22 4 27 2 21 -8 -5
-8 1 -6 12 4 11 9 33 17 49 18 16 1 40 5 54 9 31 10 50 12 50 5z m1332 -20
c10 -23 16 -25 85 -25 41 0 73 -4 73 -10 0 -5 21 -20 47 -32 26 -13 52 -32 57
-43 6 -11 16 -24 22 -30 16 -14 24 -54 13 -61 -6 -3 -17 0 -25 7 -12 10 -17
10 -23 1 -5 -8 -62 -11 -201 -9 -177 2 -379 -12 -423 -29 -25 -9 -21 7 13 46
16 19 30 41 30 48 0 6 5 12 10 12 6 0 10 7 10 16 0 10 6 14 15 10 18 -6 20 15
3 32 -14 14 2 20 122 41 25 4 68 17 95 29 65 26 64 26 77 -3z m-2752 2 c0 -17
-20 -37 -37 -37 -11 0 -9 6 4 25 20 27 33 32 33 12z m-410 -28 c0 -5 -4 -9
-10 -9 -5 0 -10 7 -10 16 0 8 5 12 10 9 6 -3 10 -10 10 -16z m1793 -209 c7 -7
7 -10 1 -7 -6 3 -35 8 -64 11 -73 7 -79 20 -7 14 32 -3 63 -11 70 -18z m1445
-20 c45 -5 88 -13 95 -17 7 -4 20 -9 30 -10 10 -2 32 -9 51 -17 34 -14 40 -34
19 -70 -11 -19 -12 -19 -49 -3 -45 20 -149 23 -361 11 -78 -4 -133 -3 -134 2
0 5 -2 20 -3 32 -2 16 4 27 18 32 12 5 30 12 41 16 78 30 173 38 293 24z
m-3249 -95 c-34 -65 -35 -69 -9 -53 15 10 22 10 32 0 9 -9 8 -15 -8 -27 -17
-13 -17 -14 -1 -15 9 0 18 -8 19 -17 7 -79 20 -147 40 -223 33 -123 70 -361
57 -360 -2 0 -57 27 -123 59 -78 39 -122 67 -130 83 -13 26 -147 96 -299 155
l-98 38 6 35 c10 56 50 132 91 174 91 92 317 202 421 205 l31 1 -29 -55z
m1779 -58 c33 -34 24 -42 -23 -23 -46 20 -127 20 -188 2 -40 -12 -47 -12 -47
0 0 8 -4 14 -10 14 -5 0 -10 4 -10 9 0 11 142 30 203 26 37 -2 55 -9 75 -28z
m-1058 -117 c0 -15 7 -20 24 -20 14 0 27 -4 30 -9 7 -11 -117 -18 -194 -11
-40 4 -49 7 -32 12 13 4 26 16 29 27 5 19 13 21 74 21 62 0 69 -2 69 -20z
m3160 -146 c-14 -135 -32 -220 -67 -302 -33 -79 -53 -86 -123 -43 -28 17 -54
31 -59 31 -5 0 -14 6 -20 14 -6 7 -50 26 -98 41 -49 15 -101 32 -118 39 -16 6
-36 9 -42 8 -7 -2 -13 1 -13 7 0 5 6 12 13 15 6 3 -14 4 -45 2 -67 -5 -79 9
-15 17 23 3 60 9 82 14 37 8 40 11 43 46 2 23 8 37 17 37 7 0 27 14 44 31 17
17 35 27 41 24 6 -3 13 1 16 9 3 9 12 16 19 16 7 0 23 11 36 24 13 12 33 28
44 33 34 18 147 44 166 38 9 -3 20 -1 24 5 10 15 23 12 28 -7 4 -15 6 -14 12
5 5 14 11 20 17 14 5 -5 5 -52 -2 -118z m-3045 56 c-3 -6 -43 -9 -88 -9 -59 1
-74 3 -52 9 46 12 147 12 140 0z m-195 -10 c0 -5 -10 -10 -22 -10 -19 0 -20 2
-8 10 19 13 30 13 30 0z m1736 -23 c3 -3 1 -15 -6 -26 -13 -25 -5 -42 15 -34
8 3 15 0 15 -7 0 -7 8 -10 18 -8 10 3 26 0 35 -7 13 -9 29 -10 62 -3 36 8 49
6 67 -7 22 -17 22 -17 2 -12 -12 2 -32 -4 -45 -14 -34 -26 -133 -26 -174 1
-16 11 -42 20 -57 20 -60 0 -117 58 -89 92 11 13 28 16 83 13 38 -1 71 -5 74
-8z m-1492 -12 c11 -8 14 -15 8 -15 -7 0 -25 -9 -40 -20 -41 -29 -324 -82
-336 -62 -11 18 41 61 80 67 22 3 64 14 94 24 69 23 168 26 194 6z m1376 -217
c66 -22 102 -29 225 -44 17 -2 185 -5 375 -5 368 -1 502 -9 590 -36 143 -43
173 -57 216 -101 24 -24 44 -48 44 -53 0 -5 8 -6 18 -2 17 6 -21 -39 -83 -100
-73 -70 -180 -127 -350 -185 -139 -47 -275 -72 -454 -84 -190 -13 -260 -2
-390 59 -113 54 -227 168 -223 225 1 15 -5 42 -13 58 -21 41 -114 318 -108
323 2 3 21 -3 41 -13 20 -10 71 -29 112 -42z m-2693 -69 c32 -11 66 -24 75
-30 10 -5 22 -9 28 -9 6 0 34 -12 63 -26 28 -14 70 -31 93 -38 23 -7 97 -45
165 -83 68 -38 132 -73 142 -76 14 -5 17 -19 17 -72 0 -59 9 -80 25 -55 3 5
18 18 33 28 21 15 34 17 60 10 28 -8 32 -12 32 -44 0 -25 -13 -58 -44 -108
-58 -93 -70 -138 -45 -160 23 -19 29 -20 29 -3 1 21 103 124 160 160 31 19 62
42 69 51 7 9 19 16 26 16 8 0 26 6 42 14 43 22 73 32 143 52 36 9 70 21 75 24
14 10 154 31 190 29 17 -1 67 2 111 6 57 5 83 4 88 -4 4 -6 12 -9 17 -6 27 17
-13 -111 -74 -234 -50 -100 -130 -180 -221 -221 -135 -60 -336 -111 -430 -109
-27 1 -34 3 -21 7 32 11 25 37 -11 39 -18 0 -41 6 -53 12 -15 8 -27 9 -40 1
-11 -5 -34 -10 -52 -10 -26 0 -29 -3 -20 -14 9 -11 8 -14 -6 -12 -10 0 -17 -5
-16 -11 2 -9 -15 -13 -62 -13 -101 0 -219 45 -316 121 -22 17 -43 26 -55 23
-12 -3 -26 2 -36 13 -48 54 -154 285 -198 428 -6 22 -16 54 -22 70 -27 81 -53
229 -43 245 9 14 16 13 82 -11z m773 -843 c0 -11 -19 -15 -25 -6 -3 5 1 10 9
10 9 0 16 -2 16 -4z m20 -42 c0 -2 -9 -4 -20 -4 -11 0 -20 4 -20 9 0 5 9 7 20
4 11 -3 20 -7 20 -9z m-20 -438 c0 -3 -4 -8 -10 -11 -5 -3 -10 -1 -10 4 0 6 5
11 10 11 6 0 10 -2 10 -4z m137 -38 c-3 -8 -6 -5 -6 6 -1 11 2 17 5 13 3 -3 4
-12 1 -19z m803 -2266 c0 -15 -2 -15 -10 -2 -13 20 -13 33 0 25 6 -3 10 -14
10 -23z m341 -866 c5 -6 9 -19 9 -30 -1 -16 -5 -12 -15 13 -8 18 -14 43 -14
55 2 18 2 17 6 -4 3 -14 9 -29 14 -34z m-476 -76 c-3 -5 -10 -10 -16 -10 -5 0
-9 5 -9 10 0 6 7 10 16 10 8 0 12 -4 9 -10z"/>
<path d="M5432 13880 c0 -14 2 -19 5 -12 2 6 2 18 0 25 -3 6 -5 1 -5 -13z"/>
<path d="M5470 13771 c0 -5 7 -11 14 -14 10 -4 13 -1 9 9 -6 15 -23 19 -23 5z"/>
<path d="M3710 13629 c0 -5 5 -7 10 -4 6 3 10 8 10 11 0 2 -4 4 -10 4 -5 0
-10 -5 -10 -11z"/>
<path d="M2661 13268 c0 -29 4 -62 9 -73 5 -13 8 3 7 48 0 37 -4 70 -9 73 -4
3 -8 -19 -7 -48z"/>
<path d="M2588 13095 c-3 -11 -9 -29 -13 -40 -3 -11 1 -7 10 8 9 16 15 33 12
40 -2 6 -6 3 -9 -8z"/>
<path d="M5698 12673 c7 -3 16 -2 19 1 4 3 -2 6 -13 5 -11 0 -14 -3 -6 -6z"/>
<path d="M5478 11353 c6 -2 18 -2 25 0 6 3 1 5 -13 5 -14 0 -19 -2 -12 -5z"/>
<path d="M4358 11193 c7 -3 16 -2 19 1 4 3 -2 6 -13 5 -11 0 -14 -3 -6 -6z"/>
<path d="M4218 11163 c7 -3 16 -2 19 1 4 3 -2 6 -13 5 -11 0 -14 -3 -6 -6z"/>
<path d="M3360 11020 c0 -5 7 -10 16 -10 8 0 12 5 9 10 -3 6 -10 10 -16 10 -5
0 -9 -4 -9 -10z"/>
<path d="M6071 10834 c0 -11 3 -14 6 -6 3 7 2 16 -1 19 -3 4 -6 -2 -5 -13z"/>
<path d="M2650 10370 c0 -5 4 -10 9 -10 6 0 13 5 16 10 3 6 -1 10 -9 10 -9 0
-16 -4 -16 -10z"/>
<path d="M2190 9265 c0 -8 5 -15 10 -15 6 0 10 7 10 15 0 8 -4 15 -10 15 -5 0
-10 -7 -10 -15z"/>
<path d="M5485 14324 c-16 -7 -23 -13 -14 -14 9 0 22 -7 29 -15 28 -33 54 -9
27 26 -10 13 -16 14 -42 3z"/>
<path d="M6121 13564 c0 -11 3 -14 6 -6 3 7 2 16 -1 19 -3 4 -6 -2 -5 -13z"/>
<path d="M2903 13440 c-13 -5 -23 -14 -23 -20 0 -7 5 -8 13 -3 6 4 28 13 47
19 30 10 31 12 10 12 -14 1 -35 -3 -47 -8z"/>
<path d="M2360 13146 c0 -9 5 -16 10 -16 6 0 10 4 10 9 0 6 -4 13 -10 16 -5 3
-10 -1 -10 -9z"/>
<path d="M2188 12863 c7 -3 16 -2 19 1 4 3 -2 6 -13 5 -11 0 -14 -3 -6 -6z"/>
<path d="M2117 12849 c6 -6 9 -17 6 -25 -5 -13 54 -50 65 -40 3 3 -5 17 -17
30 -13 14 -20 29 -16 35 4 7 -4 11 -21 11 -21 0 -25 -3 -17 -11z"/>
<path d="M1945 12800 c-3 -6 1 -7 9 -4 18 7 21 14 7 14 -6 0 -13 -4 -16 -10z"/>
<path d="M1871 12663 c-1 -6 -4 -20 -7 -30 -5 -17 -5 -17 6 0 6 10 9 23 6 30
-3 9 -5 9 -5 0z"/>
<path d="M1932 12619 c-19 -30 -11 -32 11 -3 10 13 14 24 10 24 -5 0 -14 -9
-21 -21z"/>
<path d="M1847 12566 c-7 -47 -4 -66 9 -54 3 3 4 28 2 54 l-3 49 -8 -49z"/>
<path d="M2025 12430 c3 -5 11 -10 16 -10 6 0 7 5 4 10 -3 6 -11 10 -16 10 -6
0 -7 -4 -4 -10z"/>
<path d="M1941 11134 c0 -11 3 -14 6 -6 3 7 2 16 -1 19 -3 4 -6 -2 -5 -13z"/>
<path d="M7302 10184 c-28 -14 -73 -47 -99 -73 -125 -125 -127 -128 -185 -290
-34 -97 -62 -153 -72 -144 -3 3 -6 2 -6 -3 -1 -25 -18 -36 -39 -25 -27 15 -27
2 2 -40 12 -19 30 -55 40 -80 28 -73 74 -139 97 -139 40 0 86 27 99 58 11 26
10 37 -10 83 -13 29 -39 73 -57 98 l-35 45 28 20 c15 12 57 49 93 84 121 115
201 151 277 125 53 -18 98 -64 130 -132 l27 -56 14 25 c18 31 9 224 -11 256
-7 11 -19 39 -25 61 -14 47 -71 118 -111 139 -42 21 -99 17 -157 -12z m-342
-544 c0 -5 -5 -10 -11 -10 -5 0 -7 5 -4 10 3 6 8 10 11 10 2 0 4 -4 4 -10z"/>
<path d="M6662 9272 c-21 -18 -21 -21 -7 -48 21 -40 19 -57 -4 -49 -41 13 -56
-77 -21 -122 11 -14 20 -22 20 -17 1 5 7 -4 14 -21 12 -26 15 -28 21 -12 4 10
3 29 -4 43 -6 14 -11 33 -11 42 0 18 39 58 53 54 19 -6 17 30 -3 63 -12 19
-20 44 -18 56 4 29 -13 34 -40 11z"/>
<path d="M2921 9032 c-6 -11 -6 -24 0 -33 9 -14 10 -12 14 29 3 27 -1 28 -14
4z"/>
<path d="M6594 9026 c-8 -22 3 -49 19 -43 6 2 12 14 12 27 0 27 -22 39 -31 16z"/>
<path d="M2468 8973 c6 -2 18 -2 25 0 6 3 1 5 -13 5 -14 0 -19 -2 -12 -5z"/>
<path d="M2218 8963 c7 -3 16 -2 19 1 4 3 -2 6 -13 5 -11 0 -14 -3 -6 -6z"/>
<path d="M2484 8949 c-8 -14 11 -33 25 -25 11 7 4 36 -9 36 -5 0 -12 -5 -16
-11z"/>
<path d="M6631 8944 c0 -11 3 -14 6 -6 3 7 2 16 -1 19 -3 4 -6 -2 -5 -13z"/>
<path d="M6716 8649 c-26 -49 -34 -77 -41 -144 -10 -99 -18 -141 -28 -147 -9
-6 -9 -12 -1 -26 10 -15 8 -23 -6 -42 -14 -18 -16 -29 -8 -43 6 -12 6 -23 0
-30 -5 -7 -13 -32 -17 -57 -3 -25 -9 -53 -11 -62 -4 -12 0 -18 10 -18 10 0 17
14 21 48 8 72 25 143 42 182 9 19 18 53 21 77 5 50 22 69 49 55 25 -13 122
-21 129 -11 3 5 -5 9 -18 9 -13 0 -35 6 -49 14 -14 7 -37 16 -52 20 -20 5 -27
13 -27 31 0 16 6 25 15 25 8 0 15 -3 15 -8 0 -10 77 -49 115 -58 31 -7 57 -9
115 -5 l35 1 -25 20 c-14 11 -33 20 -43 20 -52 0 -144 78 -178 151 -13 27 -26
49 -29 49 -4 0 -18 -23 -34 -51z"/>
<path d="M2380 8380 c0 -5 5 -10 11 -10 5 0 7 5 4 10 -3 6 -8 10 -11 10 -2 0
-4 -4 -4 -10z"/>
<path d="M6560 7936 c0 -9 5 -16 10 -16 6 0 10 4 10 9 0 6 -4 13 -10 16 -5 3
-10 -1 -10 -9z"/>
<path d="M6500 7749 c0 -5 5 -7 10 -4 6 3 10 8 10 11 0 2 -4 4 -10 4 -5 0 -10
-5 -10 -11z"/>
<path d="M3265 7450 c3 -5 11 -10 16 -10 6 0 7 5 4 10 -3 6 -11 10 -16 10 -6
0 -7 -4 -4 -10z"/>
<path d="M4825 7063 c-21 -11 -25 -18 -15 -20 8 -3 26 -10 39 -16 19 -10 25
-9 29 1 2 8 18 -2 42 -28 30 -33 44 -41 67 -38 22 2 28 8 28 28 0 21 -5 25
-27 25 -24 -1 -28 3 -28 27 0 25 -4 28 -32 28 -18 0 -42 2 -53 5 -11 3 -33 -3
-50 -12z"/>
<path d="M5575 6974 c-20 -20 -16 -48 8 -52 14 -3 17 4 17 32 0 41 -2 42 -25
20z"/>
<path d="M3433 6625 c-17 -19 -16 -35 2 -35 9 0 15 9 15 25 0 29 -1 29 -17 10z"/>
<path d="M3992 6395 c0 -16 2 -22 5 -12 2 9 2 23 0 30 -3 6 -5 -1 -5 -18z"/>
<path d="M4050 6305 c0 -8 7 -15 15 -15 8 0 15 7 15 15 0 8 -7 15 -15 15 -8 0
-15 -7 -15 -15z"/>
<path d="M4231 6304 c0 -11 3 -14 6 -6 3 7 2 16 -1 19 -3 4 -6 -2 -5 -13z"/>
</g>
</svg>
